{"asset":{"version":"2.0","generator":"GLTFExporter"},"meshes":[{"primitives":[{"mode":4,"attributes":{"POSITION":0,"NORMAL":1,"TEXCOORD_0":2,"TEXCOORD_1":3},"indices":4,"material":0},{"mode":4,"attributes":{"POSITION":0,"NORMAL":1,"TEXCOORD_0":2,"TEXCOORD_1":3},"indices":5,"material":1},{"mode":4,"attributes":{"POSITION":0,"NORMAL":1,"TEXCOORD_0":2,"TEXCOORD_1":3},"indices":6,"material":2},{"mode":4,"attributes":{"POSITION":0,"NORMAL":1,"TEXCOORD_0":2,"TEXCOORD_1":3},"indices":7,"material":3}]}],"materials":[{"pbrMetallicRoughness":{"baseColorFactor":[0.5879999995231628,0.5879999995231628,0.5879999995231628,1],"baseColorTexture":{"index":0,"scale":1,"extensions":{"KHR_texture_transform":{"scale":[1,1]}}}},"emissiveFactor":[0,0,0]},{"pbrMetallicRoughness":{"baseColorFactor":[0.5879999995231628,0.5879999995231628,0.5879999995231628,1],"baseColorTexture":{"index":1,"scale":1,"extensions":{"KHR_texture_transform":{"scale":[1,1]}}}},"emissiveFactor":[0,0,0],"alphaMode":"MASK"},{"pbrMetallicRoughness":{"baseColorFactor":[0.5879999995231628,0.5879999995231628,0.5879999995231628,1],"baseColorTexture":{"index":2,"scale":1,"extensions":{"KHR_texture_transform":{"scale":[1,1]}}}},"emissiveFactor":[0,0,0]},{"pbrMetallicRoughness":{"baseColorFactor":[0.5882353186607361,0.5882353186607361,0.5882353186607361,1],"baseColorTexture":{"index":3,"scale":1,"extensions":{"KHR_texture_transform":{"scale":[1,1]}}}},"emissiveFactor":[0,0,0]}],"scene":0,"scenes":[{"nodes":[2]}],"nodes":[{"matrix":[1,0,0,0,0,2.220446049250313e-16,-1,0,0,1,2.220446049250313e-16,0,0,-1354.206787109375,-30.62743949890154,1],"name":"load_mesh","mesh":0},{"matrix":[0.0036921983020575173,0,0,0,0,0.0036921983020575173,0,0,0,0,0.0036921983020575173,0,0,0,0,1],"name":"load_scene","children":[0]},{"matrix":[1,0,0,0,0,1,0,0,0,0,1,0,0,0,0,1],"name":"Container","children":[1]}],"bufferViews":[{"buffer":0,"byteOffset":0,"byteLength":732096,"target":34962,"byteStride":12},{"buffer":0,"byteOffset":732096,"byteLength":732096,"target":34962,"byteStride":12},{"buffer":0,"byteOffset":1464192,"byteLength":488064,"target":34962,"byteStride":8},{"buffer":0,"byteOffset":1952256,"byteLength":488064,"target":34962,"byteStride":8},{"buffer":0,"byteOffset":2440320,"byteLength":98424,"target":34963},{"buffer":0,"byteOffset":2538744,"byteLength":2832,"target":34963},{"buffer":0,"byteOffset":2541576,"byteLength":120,"target":34963},{"buffer":0,"byteOffset":2541696,"byteLength":20640,"target":34963}],"buffers":[{"byteLength":2562336,"uri":"custom.bin"}],"accessors":[{"bufferView":0,"componentType":5126,"count":61008,"max":[1118.76611328125,55.831241607666016,2708.41357421875],"min":[-1118.76611328125,-117.08612060546875,0],"type":"VEC3"},{"bufferView":1,"componentType":5126,"count":61008,"max":[1,1,1],"min":[-1,-1,-1],"type":"VEC3"},{"bufferView":2,"componentType":5126,"count":61008,"max":[5380.259765625,1577.38818359375],"min":[-3719.279296875,-1301.8677978515625],"type":"VEC2"},{"bufferView":3,"componentType":5126,"count":61008,"max":[5380.259765625,1577.38818359375],"min":[-3719.279296875,-1554.859375],"type":"VEC2"},{"bufferView":4,"componentType":5123,"count":49212,"max":[49211],"min":[0],"type":"SCALAR"},{"bufferView":5,"componentType":5123,"count":1416,"max":[50627],"min":[49212],"type":"SCALAR"},{"bufferView":6,"componentType":5123,"count":60,"max":[50687],"min":[50628],"type":"SCALAR"},{"bufferView":7,"componentType":5123,"count":10320,"max":[61007],"min":[50688],"type":"SCALAR"}],"textures":[{"sampler":0,"source":0},{"sampler":1,"source":1},{"sampler":2,"source":2},{"sampler":3,"source":3}],"samplers":[{"magFilter":9729,"minFilter":9987,"wrapS":10497,"wrapT":10497},{"magFilter":9729,"minFilter":9987,"wrapS":10497,"wrapT":10497},{"magFilter":9729,"minFilter":9987,"wrapS":10497,"wrapT":10497},{"magFilter":9729,"minFilter":9987,"wrapS":10497,"wrapT":10497}],"images":[{"mimeType":"image/jpeg","uri":"http://localhost:8080/asset/obj/fbx/win/dif_M.jpg"},{"mimeType":"image/jpeg","uri":"http://localhost:8080/asset/obj/fbx/win/BL123.jpg"},{"mimeType":"image/png","uri":"http://localhost:8080/asset/obj/fbx/win/0596.png"},{"mimeType":"image/png","uri":"http://localhost:8080/asset/obj/fbx/win/0000.png"}],"extensionsUsed":["KHR_texture_transform"]}