{
  "accessors": [
    {
      "bufferView": 2,
      "componentType": 5126,
      "count": 2791,
      "max": [
        7.0353198051452637,
        5.1702699661254883,
        4.4805102348327637
      ],
      "min": [
        -9.4966201782226562,
        -5.1702699661254883,
        -0.041260000318288803
      ],
      "type": "VEC3"
    },
    {
      "bufferView": 2,
      "byteOffset": 33492,
      "componentType": 5126,
      "count": 2791,
      "max": [
        1,
        1,
        1
      ],
      "min": [
        -1,
        -1,
        -1
      ],
      "type": "VEC3"
    },
    {
      "bufferView": 3,
      "componentType": 5126,
      "count": 2791,
      "max": [
        1,
        1,
        1,
        1
      ],
      "min": [
        -1,
        -1,
        -1,
        -1
      ],
      "type": "VEC4"
    },
    {
      "bufferView": 1,
      "componentType": 5126,
      "count": 2791,
      "max": [
        0.9948199987411499,
        0.99659997224807739
      ],
      "min": [
        0.017740000039339066,
        0.0071499999612569809
      ],
      "type": "VEC2"
    },
    {
      "bufferView": 0,
      "componentType": 5125,
      "count": 7437,
      "max": [
        2790
      ],
      "min": [
        0
      ],
      "type": "SCALAR"
    },
    {
      "bufferView": 2,
      "byteOffset": 66984,
      "componentType": 5126,
      "count": 40,
      "max": [
        6.7453398704528809,
        4.3567500114440918,
        4.4635500907897949
      ],
      "min": [
        -9.23052978515625,
        -4.3567500114440918,
        4.4635500907897949
      ],
      "type": "VEC3"
    },
    {
      "bufferView": 2,
      "byteOffset": 67464,
      "componentType": 5126,
      "count": 40,
      "max": [
        0,
        0,
        -1
      ],
      "min": [
        0,
        0,
        -1
      ],
      "type": "VEC3"
    },
    {
      "bufferView": 3,
      "byteOffset": 44656,
      "componentType": 5126,
      "count": 40,
      "max": [
        0,
        1,
        0,
        1
      ],
      "min": [
        -2.4015812414290849e-06,
        -1,
        0,
        -1
      ],
      "type": "VEC4"
    },
    {
      "bufferView": 1,
      "byteOffset": 22328,
      "componentType": 5126,
      "count": 40,
      "max": [
        0.14959999918937683,
        0.57791000604629517
      ],
      "min": [
        0.0032399999909102917,
        0.0071499999612569809
      ],
      "type": "VEC2"
    },
    {
      "bufferView": 0,
      "byteOffset": 29748,
      "componentType": 5125,
      "count": 60,
      "max": [
        39
      ],
      "min": [
        0
      ],
      "type": "SCALAR"
    },
    {
      "bufferView": 2,
      "byteOffset": 67944,
      "componentType": 5126,
      "count": 774,
      "max": [
        5.848750114440918,
        5.0285301208496094,
        4.2860298156738281
      ],
      "min": [
        -8.8628501892089844,
        -5.0285301208496094,
        0.31139001250267029
      ],
      "type": "VEC3"
    },
    {
      "bufferView": 2,
      "byteOffset": 77232,
      "componentType": 5126,
      "count": 774,
      "max": [
        0.0065000257454812527,
        0.70948779582977295,
        0.98516672849655151
      ],
      "min": [
        -0.023679915815591812,
        -0.7180408239364624,
        -0.722190260887146
      ],
      "type": "VEC3"
    },
    {
      "bufferView": 3,
      "byteOffset": 45296,
      "componentType": 5126,
      "count": 774,
      "max": [
        -0.68234342336654663,
        0.68548035621643066,
        0.10094892978668213,
        1
      ],
      "min": [
        -0.86169451475143433,
        -0.68548035621643066,
        -0.50176173448562622,
        -1
      ],
      "type": "VEC4"
    },
    {
      "bufferView": 1,
      "byteOffset": 22648,
      "componentType": 5126,
      "count": 774,
      "max": [
        0.98853999376296997,
        0.95526999235153198
      ],
      "min": [
        0.13415999710559845,
        0.14984999597072601
      ],
      "type": "VEC2"
    },
    {
      "bufferView": 0,
      "byteOffset": 29988,
      "componentType": 5125,
      "count": 1080,
      "max": [
        773
      ],
      "min": [
        0
      ],
      "type": "SCALAR"
    },
    {
      "bufferView": 2,
      "byteOffset": 86520,
      "componentType": 5126,
      "count": 48,
      "max": [
        6.4711298942565918,
        4.6664600372314453,
        0.87041002511978149
      ],
      "min": [
        -8.8499002456665039,
        -4.6664600372314453,
        0.5156400203704834
      ],
      "type": "VEC3"
    },
    {
      "bufferView": 2,
      "byteOffset": 87096,
      "componentType": 5126,
      "count": 48,
      "max": [
        0,
        0.93169957399368286,
        0.36322981119155884
      ],
      "min": [
        0,
        -0.93169957399368286,
        0.36322981119155884
      ],
      "type": "VEC3"
    },
    {
      "bufferView": 3,
      "byteOffset": 57680,
      "componentType": 5126,
      "count": 48,
      "max": [
        -1,
        0,
        0,
        1
      ],
      "min": [
        -1,
        0,
        0,
        -1
      ],
      "type": "VEC4"
    },
    {
      "bufferView": 1,
      "byteOffset": 28840,
      "componentType": 5126,
      "count": 48,
      "max": [
        0.91803997755050659,
        0.15939000248908997
      ],
      "min": [
        0.42563998699188232,
        0.14666999876499176
      ],
      "type": "VEC2"
    },
    {
      "bufferView": 0,
      "byteOffset": 34308,
      "componentType": 5125,
      "count": 72,
      "max": [
        47
      ],
      "min": [
        0
      ],
      "type": "SCALAR"
    }
  ],
  "asset": {
    "extras": {
      "author": "ateeq93 (https://sketchfab.com/ateeq93)",
      "license": "CC-BY-4.0 (http://creativecommons.org/licenses/by/4.0/)",
      "source": "https://sketchfab.com/models/8993d2084de440eead0a1fe43f3cfa0f",
      "title": "car garage"
    },
    "generator": "Sketchfab-3.19.1",
    "version": "2.0"
  },
  "bufferViews": [
    {
      "buffer": 0,
      "byteLength": 34596,
      "byteOffset": 0,
      "name": "floatBufferViews",
      "target": 34963
    },
    {
      "buffer": 0,
      "byteLength": 29224,
      "byteOffset": 34596,
      "byteStride": 8,
      "name": "floatBufferViews",
      "target": 34962
    },
    {
      "buffer": 0,
      "byteLength": 87672,
      "byteOffset": 63820,
      "byteStride": 12,
      "name": "floatBufferViews",
      "target": 34962
    },
    {
      "buffer": 0,
      "byteLength": 58448,
      "byteOffset": 151492,
      "byteStride": 16,
      "name": "floatBufferViews",
      "target": 34962
    }
  ],
  "buffers": [
    {
      "byteLength": 209940,
      "uri": "scene.bin"
    }
  ],
  "images": [
    {
      "uri": "textures/floor_light_emissive.png"
    },
    {
      "uri": "textures/blue_light_emissive.png"
    },
    {
      "uri": "textures/Material_normal.png"
    },
    {
      "uri": "textures/Material_emissive.png"
    },
    {
      "uri": "textures/Material_baseColor.png"
    },
    {
      "uri": "textures/white_light_emissive.png"
    }
  ],
  "materials": [
    {
      "doubleSided": true,
      "emissiveFactor": [
        0.20000000000000001,
        0.20000000000000001,
        0.20000000000000001
      ],
      "emissiveTexture": {
        "index": 3,
        "texCoord": 0
      },
      "name": "Material",
      "normalTexture": {
        "index": 2,
        "scale": 1,
        "texCoord": 0
      },
      "pbrMetallicRoughness": {
        "baseColorFactor": [
          1,
          1,
          1,
          1
        ],
        "baseColorTexture": {
          "index": 4,
          "texCoord": 0
        },
        "metallicFactor": 0,
        "roughnessFactor": 0.59999999999999998
      }
    },
    {
      "doubleSided": true,
      "emissiveFactor": [
        1,
        1,
        1
      ],
      "emissiveTexture": {
        "index": 5,
        "texCoord": 0
      },
      "name": "white_light",
      "pbrMetallicRoughness": {
        "metallicFactor": 0,
        "roughnessFactor": 0.59999999999999998
      }
    },
    {
      "doubleSided": true,
      "emissiveFactor": [
        1,
        1,
        1
      ],
      "emissiveTexture": {
        "index": 1,
        "texCoord": 0
      },
      "name": "blue_light",
      "pbrMetallicRoughness": {
        "metallicFactor": 0,
        "roughnessFactor": 0.59999999999999998
      }
    },
    {
      "doubleSided": true,
      "emissiveFactor": [
        1,
        1,
        1
      ],
      "emissiveTexture": {
        "index": 0,
        "texCoord": 0
      },
      "name": "floor_light",
      "pbrMetallicRoughness": {
        "metallicFactor": 0,
        "roughnessFactor": 0.59999999999999998
      }
    }
  ],
  "meshes": [
    {
      "name": "Cube_0",
      "primitives": [
        {
          "attributes": {
            "NORMAL": 1,
            "POSITION": 0,
            "TANGENT": 2,
            "TEXCOORD_0": 3
          },
          "indices": 4,
          "material": 0,
          "mode": 4
        }
      ]
    },
    {
      "name": "Cube_1",
      "primitives": [
        {
          "attributes": {
            "NORMAL": 6,
            "POSITION": 5,
            "TANGENT": 7,
            "TEXCOORD_0": 8
          },
          "indices": 9,
          "material": 1,
          "mode": 4
        }
      ]
    },
    {
      "name": "Cube_2",
      "primitives": [
        {
          "attributes": {
            "NORMAL": 11,
            "POSITION": 10,
            "TANGENT": 12,
            "TEXCOORD_0": 13
          },
          "indices": 14,
          "material": 2,
          "mode": 4
        }
      ]
    },
    {
      "name": "Cube_3",
      "primitives": [
        {
          "attributes": {
            "NORMAL": 16,
            "POSITION": 15,
            "TANGENT": 17,
            "TEXCOORD_0": 18
          },
          "indices": 19,
          "material": 3,
          "mode": 4
        }
      ]
    }
  ],
  "nodes": [
    {
      "children": [
        1
      ],
      "name": "RootNode (gltf orientation matrix)",
      "rotation": [
        -0.70710678118654746,
        -0,
        -0,
        0.70710678118654757
      ]
    },
    {
      "children": [
        2
      ],
      "name": "RootNode (model correction matrix)"
    },
    {
      "children": [
        3,
        5
      ],
      "name": "Root"
    },
    {
      "children": [
        4
      ],
      "matrix": [
        -0.29086000000000006,
        0.95517000000000007,
        -0.05519000000000001,
        0,
        -0.77110000000000001,
        -0.19988000000000003,
        0.60452000000000006,
        0,
        0.56639000000000006,
        0.21839000000000003,
        0.7946700000000001,
        0,
        4.0762500000000008,
        1.00545,
        13.290999999999999,
        1
      ],
      "name": "Lamp"
    },
    {
      "name": "Lamp"
    },
    {
      "children": [
        6,
        7,
        8,
        9
      ],
      "name": "Cube"
    },
    {
      "mesh": 0,
      "name": "Cube_0"
    },
    {
      "mesh": 1,
      "name": "Cube_1"
    },
    {
      "mesh": 2,
      "name": "Cube_2"
    },
    {
      "mesh": 3,
      "name": "Cube_3"
    }
  ],
  "samplers": [
    {
      "magFilter": 9729,
      "minFilter": 9987,
      "wrapS": 10497,
      "wrapT": 10497
    }
  ],
  "scene": 0,
  "scenes": [
    {
      "name": "OSG_Scene",
      "nodes": [
        0
      ]
    }
  ],
  "textures": [
    {
      "sampler": 0,
      "source": 0
    },
    {
      "sampler": 0,
      "source": 1
    },
    {
      "sampler": 0,
      "source": 2
    },
    {
      "sampler": 0,
      "source": 3
    },
    {
      "sampler": 0,
      "source": 4
    },
    {
      "sampler": 0,
      "source": 5
    }
  ]
}

