{"asset":{"version":"2.0","generator":"GLTFExporter"},"meshes":[{"primitives":[{"mode":4,"attributes":{"POSITION":0,"NORMAL":1,"COLOR_0":2,"TEXCOORD_0":3},"indices":4,"material":0}]}],"materials":[{"pbrMetallicRoughness":{"baseColorFactor":[0.7667001804632766,1,0.5,1],"metallicFactor":0.5,"roughnessFactor":0.5,"baseColorTexture":{"index":0,"scale":1,"extensions":{"KHR_texture_transform":{"scale":[1,1]}}}},"emissiveFactor":[0,0,0],"alphaMode":"MASK"}],"scene":0,"scenes":[{"nodes":[1]}],"nodes":[{"matrix":[1,0,0,0,0,1,0,0,0,0,1,0,0,0,0,1],"translation":[0,0,0],"rotation":[0,0,0],"scale":[1,1,1],"mesh":0},{"matrix":[1,0,0,0,0,1,0,0,0,0,1,0,0,0,0,1],"translation":[0,0,0],"rotation":[0,0,0],"scale":[1,1,1],"children":[0]}],"bufferViews":[{"buffer":0,"byteOffset":0,"byteLength":432,"target":34962,"byteStride":12},{"buffer":0,"byteOffset":432,"byteLength":432,"target":34962,"byteStride":12},{"buffer":0,"byteOffset":864,"byteLength":432,"target":34962,"byteStride":12},{"buffer":0,"byteOffset":1296,"byteLength":288,"target":34962,"byteStride":8},{"buffer":0,"byteOffset":1584,"byteLength":72,"target":34963}],"buffers":[{"byteLength":1656,"uri":"custom.bin"}],"accessors":[{"bufferView":0,"componentType":5126,"count":36,"max":[0.5,0.5,0.5],"min":[-0.5,-0.5,-0.5],"type":"VEC3"},{"bufferView":1,"componentType":5126,"count":36,"max":[1,1,1],"min":[-1,-1,-1],"type":"VEC3"},{"bufferView":2,"componentType":5126,"count":36,"max":[1,1,1],"min":[1,1,1],"type":"VEC3"},{"bufferView":3,"componentType":5126,"count":36,"max":[1,1],"min":[0,0],"type":"VEC2"},{"bufferView":4,"componentType":5123,"count":36,"max":[35],"min":[0],"type":"SCALAR"}],"textures":[{"sampler":0,"source":0}],"samplers":[{"magFilter":9729,"minFilter":9987,"wrapS":10497,"wrapT":10497}],"images":[{"mimeType":"image/jpeg","uri":"p6.jpg"}],"extensionsUsed":["KHR_texture_transform"]}