{"asset":{"version":"2.0","generator":"GLTFExporter"},"scenes":[{"nodes":[3],"name":"AuxScene"}],"scene":0,"nodes":[{"name":"Icosphere_0","extras":{"name":"Icosphere_0"},"mesh":0},{"name":"Icosphere_1","extras":{"name":"Icosphere_1"},"mesh":1},{"name":"Icosphere_2","extras":{"name":"Icosphere_2"},"mesh":2},{"name":"Icosphere","extras":{"name":"Icosphere"},"children":[0,1,2]}],"bufferViews":[{"buffer":0,"byteOffset":0,"byteLength":8748,"target":34962,"byteStride":12},{"buffer":0,"byteOffset":8748,"byteLength":8748,"target":34962,"byteStride":12},{"buffer":0,"byteOffset":17496,"byteLength":16440,"target":34963},{"buffer":0,"byteOffset":33936,"byteLength":2196,"target":34962,"byteStride":12},{"buffer":0,"byteOffset":36132,"byteLength":2196,"target":34962,"byteStride":12},{"buffer":0,"byteOffset":38328,"byteLength":3240,"target":34963},{"buffer":0,"byteOffset":41568,"byteLength":2160,"target":34962,"byteStride":12},{"buffer":0,"byteOffset":43728,"byteLength":2160,"target":34962,"byteStride":12},{"buffer":0,"byteOffset":45888,"byteLength":2160,"target":34963}],"buffers":[{"byteLength":48048,"uri":"data:application/octet-stream;base64,"}],"accessors":[{"bufferView":0,"componentType":5126,"count":729,"max":[0.9999971389770508,1,1],"min":[-0.9999971389770508,-1,-1],"type":"VEC3"},{"bufferView":1,"componentType":5126,"count":729,"max":[0.22383636236190796,0.22383636236190796,0.22383636236190796],"min":[-0.22383636236190796,-0.22383636236190796,-0.22383636236190796],"type":"VEC3"},{"bufferView":2,"componentType":5125,"count":4110,"max":[728],"min":[0],"type":"SCALAR"},{"bufferView":3,"componentType":5126,"count":183,"max":[0.9995849132537842,0.31779745221138,0.9684747457504272],"min":[-0.02420053817331791,-0.9975492358207703,-0.8605026602745056],"type":"VEC3"},{"bufferView":4,"componentType":5126,"count":183,"max":[0.20221580564975739,-0.039790987968444824,0.13770617544651031],"min":[0.0664132758975029,-0.1673939973115921,-0.07891963422298431],"type":"VEC3"},{"bufferView":5,"componentType":5125,"count":810,"max":[182],"min":[0],"type":"SCALAR"},{"bufferView":6,"componentType":5126,"count":180,"max":[0.9948844313621521,0.25593695044517517,0.9474070072174072],"min":[0.04498100280761719,-0.9942144751548767,-0.8169678449630737],"type":"VEC3"},{"bufferView":7,"componentType":5126,"count":180,"max":[0.203572079539299,-0.07554273307323456,0.14017245173454285],"min":[0.1321336328983307,-0.16946855187416077,-0.0818243995308876],"type":"VEC3"},{"bufferView":8,"componentType":5125,"count":540,"max":[179],"min":[0],"type":"SCALAR"}],"materials":[{"pbrMetallicRoughness":{"baseColorFactor":[0.5931055546,0.8000000715,0.005525691,1],"metallicFactor":0,"roughnessFactor":0.6},"doubleSided":true,"name":"Bowling_Ball"},{"pbrMetallicRoughness":{"baseColorFactor":[0.0853560567,0.1024754271,0.0231656898,1],"metallicFactor":0,"roughnessFactor":0.6},"doubleSided":true,"name":"Inside_ball"},{"pbrMetallicRoughness":{"baseColorFactor":[0.8000000715,0.6100927591,0,1],"metallicFactor":0,"roughnessFactor":0.6},"doubleSided":true,"name":"Rings"}],"meshes":[{"primitives":[{"mode":4,"attributes":{"NORMAL":0,"POSITION":1},"indices":2,"material":0}]},{"primitives":[{"mode":4,"attributes":{"NORMAL":3,"POSITION":4},"indices":5,"material":1}]},{"primitives":[{"mode":4,"attributes":{"NORMAL":6,"POSITION":7},"indices":8,"material":2}]}]}