{"asset":{"version":"2.0","generator":"GLTFExporter"},"scenes":[{"nodes":[2],"name":"AuxScene"}],"scene":0,"nodes":[{"name":"pin_Pin_0","extras":{"name":"pin_Pin_0"},"mesh":0},{"matrix":[1,0,0,0,0,1,0,0,0,0,1,0,0,1.05,0,1],"name":"pin_Strips_0","extras":{"name":"pin_Strips_0"},"mesh":1},{"name":"pin","extras":{"name":"pin"},"children":[0,1]}],"bufferViews":[{"buffer":0,"byteOffset":0,"byteLength":19896,"target":34962,"byteStride":12},{"buffer":0,"byteOffset":19896,"byteLength":19896,"target":34962,"byteStride":12},{"buffer":0,"byteOffset":39792,"byteLength":38592,"target":34963},{"buffer":0,"byteOffset":78384,"byteLength":1728,"target":34962,"byteStride":12},{"buffer":0,"byteOffset":80112,"byteLength":1728,"target":34962,"byteStride":12},{"buffer":0,"byteOffset":81840,"byteLength":2304,"target":34963}],"buffers":[{"byteLength":84144,"uri":"data:application/octet-stream;base64,"}],"accessors":[{"bufferView":0,"componentType":5126,"count":1658,"max":[0.9999970197677612,1,0.9999970197677612],"min":[-0.9999970197677612,-1,-0.9999970197677612],"type":"VEC3"},{"bufferView":1,"componentType":5126,"count":1658,"max":[0.8499761819839478,2.7679266929626465,0.8499764204025269],"min":[-0.8499761819839478,-2.7679266929626465,-0.8499764204025269],"type":"VEC3"},{"bufferView":2,"componentType":5125,"count":9648,"max":[1657],"min":[0],"type":"SCALAR"},{"bufferView":3,"componentType":5126,"count":144,"max":[0.999985933303833,0.0356161929666996,0.999985933303833],"min":[-0.999985933303833,-0.105322927236557,-0.999985933303833],"type":"VEC3"},{"bufferView":4,"componentType":5126,"count":144,"max":[0.38030263781547546,0.32996201515197754,0.3803025484085083],"min":[-0.38030263781547546,-0.32996201515197754,-0.3803025484085083],"type":"VEC3"},{"bufferView":5,"componentType":5125,"count":576,"max":[143],"min":[0],"type":"SCALAR"}],"materials":[{"pbrMetallicRoughness":{"baseColorFactor":[0.9294117647058824,0.9294117647058824,0.9294117647058824,1],"metallicFactor":0,"roughnessFactor":0.9005206071},"doubleSided":true,"name":"material"},{"pbrMetallicRoughness":{"baseColorFactor":[0.9254901960784314,0.054901960784313725,0.06666666666666667,1],"metallicFactor":0,"roughnessFactor":0.8239417257},"doubleSided":true,"name":"Strips"}],"meshes":[{"primitives":[{"mode":4,"attributes":{"NORMAL":0,"POSITION":1},"indices":2,"material":0}]},{"primitives":[{"mode":4,"attributes":{"NORMAL":3,"POSITION":4},"indices":5,"material":1}]}]}