{
  "accessors": [
    {
      "bufferView": 1,
      "componentType": 5126,
      "count": 1658,
      "max": [
        0.38008427619934082,
        1.4382461309432983,
        0.84995615482330322
      ],
      "min": [
        -5.1557693481445312,
        -0.26170629262924194,
        -0.84999674558639526
      ],
      "type": "VEC3"
    },
    {
      "bufferView": 1,
      "byteOffset": 19896,
      "componentType": 5126,
      "count": 1658,
      "max": [
        1,
        0.99999701976776123,
        0.99999701976776123
      ],
      "min": [
        -1,
        -0.99999701976776123,
        -0.99999701976776123
      ],
      "type": "VEC3"
    },
    {
      "bufferView": 0,
      "componentType": 5125,
      "count": 9648,
      "max": [
        1657
      ],
      "min": [
        0
      ],
      "type": "SCALAR"
    },
    {
      "bufferView": 1,
      "byteOffset": 39792,
      "componentType": 5126,
      "count": 144,
      "max": [
        -3.1068058013916016,
        0.96857219934463501,
        0.38028216361999512
      ],
      "min": [
        -3.7667298316955566,
        0.20796690881252289,
        -0.38032296299934387
      ],
      "type": "VEC3"
    },
    {
      "bufferView": 1,
      "byteOffset": 41520,
      "componentType": 5126,
      "count": 144,
      "max": [
        0.10532292723655701,
        0.99998593330383301,
        0.99998593330383301
      ],
      "min": [
        -0.0356161929666996,
        -0.99998593330383301,
        -0.99998593330383301
      ],
      "type": "VEC3"
    },
    {
      "bufferView": 0,
      "byteOffset": 38592,
      "componentType": 5125,
      "count": 576,
      "max": [
        143
      ],
      "min": [
        0
      ],
      "type": "SCALAR"
    }
  ],
  "asset": {
    "extras": {
      "author": "Hassan Sheikh (https://sketchfab.com/hassan24sk)",
      "license": "CC-BY-4.0 (http://creativecommons.org/licenses/by/4.0/)",
      "source": "https://sketchfab.com/models/88655efb4b834452a28173e5d1b7763b",
      "title": "Bowling Pin"
    },
    "generator": "Sketchfab-3.24.2",
    "version": "2.0"
  },
  "bufferViews": [
    {
      "buffer": 0,
      "byteLength": 40896,
      "byteOffset": 0,
      "name": "floatBufferViews",
      "target": 34963
    },
    {
      "buffer": 0,
      "byteLength": 43248,
      "byteOffset": 40896,
      "byteStride": 12,
      "name": "floatBufferViews",
      "target": 34962
    }
  ],
  "buffers": [
    {
      "byteLength": 84144,
      "uri": "scene.bin"
    }
  ],
  "materials": [
    {
      "doubleSided": true,
      "emissiveFactor": [
        0,
        0,
        0
      ],
      "name": "material",
      "pbrMetallicRoughness": {
        "baseColorFactor": [
          0.80000000000000004,
          0.80000000000000004,
          0.80000000000000004,
          1
        ],
        "metallicFactor": 0,
        "roughnessFactor": 0.90052060710000004
      }
    },
    {
      "doubleSided": true,
      "emissiveFactor": [
        0,
        0,
        0
      ],
      "name": "Strips",
      "pbrMetallicRoughness": {
        "baseColorFactor": [
          0.80000000000000004,
          0.000306213,
          0.0133569,
          1
        ],
        "metallicFactor": 0,
        "roughnessFactor": 0.82394172570000002
      }
    }
  ],
  "meshes": [
    {
      "name": "pin_Pin_0",
      "primitives": [
        {
          "attributes": {
            "NORMAL": 1,
            "POSITION": 0
          },
          "indices": 2,
          "material": 0,
          "mode": 4
        }
      ]
    },
    {
      "name": "pin_Strips_0",
      "primitives": [
        {
          "attributes": {
            "NORMAL": 4,
            "POSITION": 3
          },
          "indices": 5,
          "material": 1,
          "mode": 4
        }
      ]
    }
  ],
  "nodes": [
    {
      "children": [
        1
      ],
      "name": "RootNode (gltf orientation matrix)",
      "rotation": [
        -0.70710678118654746,
        -0,
        -0,
        0.70710678118654757
      ]
    },
    {
      "children": [
        2
      ],
      "name": "RootNode (model correction matrix)"
    },
    {
      "children": [
        3
      ],
      "matrix": [
        1,
        0,
        0,
        0,
        0,
        0,
        1,
        0,
        0,
        -1,
        0,
        0,
        0,
        0,
        0,
        1
      ],
      "name": "1f9a0b7f32ef48bb89c880514cddeae4.fbx"
    },
    {
      "children": [
        4
      ],
      "name": "RootNode"
    },
    {
      "children": [
        5,
        6
      ],
      "matrix": [
        -3.55644934666e-05,
        -218.29330444335648,
        1.1662311014117596e-11,
        0,
        218.29330444318109,
        -3.55644934666e-05,
        -0.00027670659456671557,
        0,
        0.00027670659456671383,
        -3.3418915384900671e-11,
        218.29330444318401,
        0,
        0,
        0,
        0,
        1
      ],
      "name": "pin"
    },
    {
      "mesh": 0,
      "name": "pin_Pin_0"
    },
    {
      "mesh": 1,
      "name": "pin_Strips_0"
    }
  ],
  "scene": 0,
  "scenes": [
    {
      "name": "OSG_Scene",
      "nodes": [
        0
      ]
    }
  ]
}

