{"asset":{"version":"2.0","generator":"GLTFExporter"},"meshes":[{"primitives":[{"mode":4,"attributes":{"POSITION":0,"NORMAL":1,"COLOR_0":2,"TEXCOORD_0":3},"material":0}]}],"materials":[{"pbrMetallicRoughness":{"baseColorFactor":[1,0.5855386837624199,0.5,1],"metallicFactor":0.5,"roughnessFactor":0.5},"emissiveFactor":[0.027450980392156862,0.1450980392156863,0.20392156862745098]}],"scene":0,"scenes":[{"nodes":[1]}],"nodes":[{"matrix":[1,0,0,0,0,1,0,0,0,0,1,0,0,0,0,1],"name":"BoxGeometry","mesh":0},{"matrix":[1,0,0,0,0,1,0,0,0,0,1,0,0,0,0,1],"name":"Container","children":[0]}],"bufferViews":[{"buffer":0,"byteOffset":0,"byteLength":432,"target":34962,"byteStride":12},{"buffer":0,"byteOffset":432,"byteLength":432,"target":34962,"byteStride":12},{"buffer":0,"byteOffset":864,"byteLength":432,"target":34962,"byteStride":12},{"buffer":0,"byteOffset":1296,"byteLength":288,"target":34962,"byteStride":8}],"buffers":[{"byteLength":1584,"uri":"Good.bin"}],"accessors":[{"bufferView":0,"componentType":5126,"count":36,"max":[0.5,0.5,0.5],"min":[-0.5,-0.5,-0.5],"type":"VEC3"},{"bufferView":1,"componentType":5126,"count":36,"max":[1,1,1],"min":[-1,-1,-1],"type":"VEC3"},{"bufferView":2,"componentType":5126,"count":36,"max":[1,1,1],"min":[1,1,1],"type":"VEC3"},{"bufferView":3,"componentType":5126,"count":36,"max":[1,1],"min":[0,0],"type":"VEC2"}],"textures":[],"samplers":[],"images":[],"extensionsUsed":[]}