{
  "accessors": [
    {
      "bufferView": 2,
      "componentType": 5126,
      "count": 80,
      "max": [
        1450.0966796875,
        2615.104248046875,
        479.77249145507812
      ],
      "min": [
        -801.48419189453125,
        2599.70361328125,
        288.8046875
      ],
      "type": "VEC3"
    },
    {
      "bufferView": 2,
      "byteOffset": 960,
      "componentType": 5126,
      "count": 80,
      "max": [
        0.57735025882720947,
        0.57735025882720947,
        0.57735025882720947
      ],
      "min": [
        -0.57735025882720947,
        -0.57735025882720947,
        -0.57735025882720947
      ],
      "type": "VEC3"
    },
    {
      "bufferView": 1,
      "componentType": 5126,
      "count": 80,
      "max": [
        1,
        1
      ],
      "min": [
        0,
        0
      ],
      "type": "VEC2"
    },
    {
      "bufferView": 0,
      "componentType": 5125,
      "count": 144,
      "max": [
        79
      ],
      "min": [
        0
      ],
      "type": "SCALAR"
    },
    {
      "bufferView": 2,
      "byteOffset": 1920,
      "componentType": 5126,
      "count": 936,
      "max": [
        1624.814208984375,
        2939.7001953125,
        188.33659362792969
      ],
      "min": [
        -970.735107421875,
        2344.7763671875,
        -15.411299705505371
      ],
      "type": "VEC3"
    },
    {
      "bufferView": 2,
      "byteOffset": 13152,
      "componentType": 5126,
      "count": 936,
      "max": [
        0.70422166585922241,
        0.57735025882720947,
        0.71217375993728638
      ],
      "min": [
        -0.70422166585922241,
        -0.71217375993728638,
        -0.57735025882720947
      ],
      "type": "VEC3"
    },
    {
      "bufferView": 1,
      "byteOffset": 640,
      "componentType": 5126,
      "count": 936,
      "max": [
        1,
        0.92019999027252197
      ],
      "min": [
        -0,
        0.07980000227689743
      ],
      "type": "VEC2"
    },
    {
      "bufferView": 0,
      "byteOffset": 576,
      "componentType": 5125,
      "count": 2484,
      "max": [
        935
      ],
      "min": [
        0
      ],
      "type": "SCALAR"
    },
    {
      "bufferView": 2,
      "byteOffset": 24384,
      "componentType": 5126,
      "count": 119,
      "max": [
        1618.293701171875,
        2923.50244140625,
        592.16680908203125
      ],
      "min": [
        -987.16241455078125,
        2634.098876953125,
        184.28010559082031
      ],
      "type": "VEC3"
    },
    {
      "bufferView": 2,
      "byteOffset": 25812,
      "componentType": 5126,
      "count": 119,
      "max": [
        0.76400673389434814,
        0.7042008638381958,
        0.7105826735496521
      ],
      "min": [
        -0.76400673389434814,
        -0.71258527040481567,
        -0.82221353054046631
      ],
      "type": "VEC3"
    },
    {
      "bufferView": 1,
      "byteOffset": 8128,
      "componentType": 5126,
      "count": 119,
      "max": [
        4.0714001655578613,
        1.1328999996185303
      ],
      "min": [
        -3.0713999271392822,
        -0.13289999961853027
      ],
      "type": "VEC2"
    },
    {
      "bufferView": 0,
      "byteOffset": 10512,
      "componentType": 5125,
      "count": 252,
      "max": [
        118
      ],
      "min": [
        0
      ],
      "type": "SCALAR"
    },
    {
      "bufferView": 2,
      "byteOffset": 27240,
      "componentType": 5126,
      "count": 7560,
      "max": [
        1622.81591796875,
        2830.322021484375,
        22.812799453735352
      ],
      "min": [
        -973.5283203125,
        830.322021484375,
        -7.1872000694274902
      ],
      "type": "VEC3"
    },
    {
      "bufferView": 2,
      "byteOffset": 117960,
      "componentType": 5126,
      "count": 7560,
      "max": [
        0.99810594320297241,
        0.99810594320297241,
        0.9987175464630127
      ],
      "min": [
        -0.99810594320297241,
        -0.99810594320297241,
        -0.9987175464630127
      ],
      "type": "VEC3"
    },
    {
      "bufferView": 1,
      "byteOffset": 9080,
      "componentType": 5126,
      "count": 7560,
      "max": [
        21.32390022277832,
        9.2101001739501953
      ],
      "min": [
        -20.32390022277832,
        -8.2101001739501953
      ],
      "type": "VEC2"
    },
    {
      "bufferView": 0,
      "byteOffset": 11520,
      "componentType": 5125,
      "count": 39204,
      "max": [
        7559
      ],
      "min": [
        0
      ],
      "type": "SCALAR"
    },
    {
      "bufferView": 2,
      "byteOffset": 208680,
      "componentType": 5126,
      "count": 1672,
      "max": [
        1559.842041015625,
        2930.856689453125,
        2.3187999725341797
      ],
      "min": [
        -911.21588134765625,
        928.260986328125,
        -8.652400016784668
      ],
      "type": "VEC3"
    },
    {
      "bufferView": 2,
      "byteOffset": 228744,
      "componentType": 5126,
      "count": 1672,
      "max": [
        0.71843641996383667,
        0.99951320886611938,
        1
      ],
      "min": [
        -0.73138570785522461,
        -0.99951320886611938,
        -0.75626289844512939
      ],
      "type": "VEC3"
    },
    {
      "bufferView": 1,
      "byteOffset": 69560,
      "componentType": 5126,
      "count": 1672,
      "max": [
        4.2432999610900879,
        8.6227998733520508
      ],
      "min": [
        -4.1704001426696777,
        -5.9970998764038086
      ],
      "type": "VEC2"
    },
    {
      "bufferView": 0,
      "byteOffset": 168336,
      "componentType": 5125,
      "count": 9408,
      "max": [
        1671
      ],
      "min": [
        0
      ],
      "type": "SCALAR"
    },
    {
      "bufferView": 2,
      "byteOffset": 248808,
      "componentType": 5126,
      "count": 1512,
      "max": [
        1510.6663818359375,
        1430.7618408203125,
        2.5789000988006592
      ],
      "min": [
        -861.453125,
        1348.5648193359375,
        1.8319000005722046
      ],
      "type": "VEC3"
    },
    {
      "bufferView": 2,
      "byteOffset": 266952,
      "componentType": 5126,
      "count": 1512,
      "max": [
        0.55629152059555054,
        0.99728238582611084,
        0.72557526826858521
      ],
      "min": [
        -0.73226380348205566,
        -0.83098727464675903,
        -0.72557526826858521
      ],
      "type": "VEC3"
    },
    {
      "bufferView": 1,
      "byteOffset": 82936,
      "componentType": 5126,
      "count": 1512,
      "max": [
        0.75,
        1
      ],
      "min": [
        -0.25,
        0
      ],
      "type": "VEC2"
    },
    {
      "bufferView": 0,
      "byteOffset": 205968,
      "componentType": 5125,
      "count": 6048,
      "max": [
        1511
      ],
      "min": [
        0
      ],
      "type": "SCALAR"
    }
  ],
  "asset": {
    "extras": {
      "author": "Shaun (https://sketchfab.com/shaunl)",
      "license": "CC-BY-4.0 (http://creativecommons.org/licenses/by/4.0/)",
      "source": "https://sketchfab.com/3d-models/bowling-alley-53b045e686b24d10b2bb19d8039643ab",
      "title": "Bowling Alley"
    },
    "generator": "Sketchfab-8.22.0",
    "version": "2.0"
  },
  "bufferViews": [
    {
      "buffer": 0,
      "byteLength": 230160,
      "byteOffset": 0,
      "name": "floatBufferViews",
      "target": 34963
    },
    {
      "buffer": 0,
      "byteLength": 95032,
      "byteOffset": 230160,
      "byteStride": 8,
      "name": "floatBufferViews",
      "target": 34962
    },
    {
      "buffer": 0,
      "byteLength": 285096,
      "byteOffset": 325192,
      "byteStride": 12,
      "name": "floatBufferViews",
      "target": 34962
    }
  ],
  "buffers": [
    {
      "byteLength": 610288,
      "uri": "scene.bin"
    }
  ],
  "images": [
    {
      "uri": "textures/wire_006135006_baseColor.jpeg"
    },
    {
      "uri": "textures/wire_008008136_baseColor.jpeg"
    },
    {
      "uri": "textures/wire_027177027_baseColor.jpeg"
    },
    {
      "uri": "textures/wire_027177148_baseColor.jpeg"
    }
  ],
  "materials": [
    {
      "doubleSided": true,
      "emissiveFactor": [
        0,
        0,
        0
      ],
      "name": "wire_000000000",
      "pbrMetallicRoughness": {
        "baseColorFactor": [
          0,
          0,
          0,
          1
        ],
        "metallicFactor": 0,
        "roughnessFactor": 0.91675550194980948
      }
    },
    {
      "doubleSided": true,
      "emissiveFactor": [
        0,
        0,
        0
      ],
      "name": "wire_006135006",
      "pbrMetallicRoughness": {
        "baseColorFactor": [
          1,
          1,
          1,
          1
        ],
        "baseColorTexture": {
          "index": 0,
          "texCoord": 0
        },
        "metallicFactor": 0,
        "roughnessFactor": 0.91675550194980948
      }
    },
    {
      "doubleSided": true,
      "emissiveFactor": [
        0,
        0,
        0
      ],
      "name": "wire_008008136",
      "pbrMetallicRoughness": {
        "baseColorFactor": [
          1,
          1,
          1,
          1
        ],
        "baseColorTexture": {
          "index": 1,
          "texCoord": 0
        },
        "metallicFactor": 0,
        "roughnessFactor": 0.91675550194980948
      }
    },
    {
      "doubleSided": true,
      "emissiveFactor": [
        0,
        0,
        0
      ],
      "name": "wire_027177027",
      "pbrMetallicRoughness": {
        "baseColorFactor": [
          1,
          1,
          1,
          1
        ],
        "baseColorTexture": {
          "index": 2,
          "texCoord": 0
        },
        "metallicFactor": 0,
        "roughnessFactor": 0.91675550194980948
      }
    },
    {
      "doubleSided": true,
      "emissiveFactor": [
        0,
        0,
        0
      ],
      "name": "wire_027177148",
      "pbrMetallicRoughness": {
        "baseColorFactor": [
          1,
          1,
          1,
          1
        ],
        "baseColorTexture": {
          "index": 3,
          "texCoord": 0
        },
        "metallicFactor": 0,
        "roughnessFactor": 0.91675550194980948
      }
    },
    {
      "doubleSided": true,
      "emissiveFactor": [
        0,
        0,
        0
      ],
      "name": "wire_028149177",
      "pbrMetallicRoughness": {
        "baseColorFactor": [
          0.10979999999999999,
          0.5842999999999996,
          0.69410000000000005,
          1
        ],
        "metallicFactor": 0,
        "roughnessFactor": 0.91675550194980948
      }
    }
  ],
  "meshes": [
    {
      "primitives": [
        {
          "attributes": {
            "NORMAL": 1,
            "POSITION": 0,
            "TEXCOORD_0": 2
          },
          "indices": 3,
          "material": 0,
          "mode": 4
        }
      ]
    },
    {
      "primitives": [
        {
          "attributes": {
            "NORMAL": 5,
            "POSITION": 4,
            "TEXCOORD_0": 6
          },
          "indices": 7,
          "material": 1,
          "mode": 4
        }
      ]
    },
    {
      "primitives": [
        {
          "attributes": {
            "NORMAL": 9,
            "POSITION": 8,
            "TEXCOORD_0": 10
          },
          "indices": 11,
          "material": 2,
          "mode": 4
        }
      ]
    },
    {
      "primitives": [
        {
          "attributes": {
            "NORMAL": 13,
            "POSITION": 12,
            "TEXCOORD_0": 14
          },
          "indices": 15,
          "material": 3,
          "mode": 4
        }
      ]
    },
    {
      "primitives": [
        {
          "attributes": {
            "NORMAL": 17,
            "POSITION": 16,
            "TEXCOORD_0": 18
          },
          "indices": 19,
          "material": 4,
          "mode": 4
        }
      ]
    },
    {
      "primitives": [
        {
          "attributes": {
            "NORMAL": 21,
            "POSITION": 20,
            "TEXCOORD_0": 22
          },
          "indices": 23,
          "material": 5,
          "mode": 4
        }
      ]
    }
  ],
  "nodes": [
    {
      "children": [
        1
      ],
      "name": "RootNode (gltf orientation matrix)",
      "rotation": [
        -0.70710678118654746,
        -0,
        -0,
        0.70710678118654757
      ]
    },
    {
      "children": [
        2
      ],
      "name": "RootNode (model correction matrix)"
    },
    {
      "children": [
        3,
        4,
        5,
        6,
        7,
        8
      ],
      "name": "alley 2.obj.cleaner.materialmerger.gles"
    },
    {
      "mesh": 0,
      "name": ""
    },
    {
      "mesh": 1,
      "name": ""
    },
    {
      "mesh": 2,
      "name": ""
    },
    {
      "mesh": 3,
      "name": ""
    },
    {
      "mesh": 4,
      "name": ""
    },
    {
      "mesh": 5,
      "name": ""
    }
  ],
  "samplers": [
    {
      "magFilter": 9729,
      "minFilter": 9987,
      "wrapS": 10497,
      "wrapT": 10497
    }
  ],
  "scene": 0,
  "scenes": [
    {
      "name": "OSG_Scene",
      "nodes": [
        0
      ]
    }
  ],
  "textures": [
    {
      "sampler": 0,
      "source": 0
    },
    {
      "sampler": 0,
      "source": 1
    },
    {
      "sampler": 0,
      "source": 2
    },
    {
      "sampler": 0,
      "source": 3
    }
  ]
}

